<svg width="32" height="32" viewBox="0 0 32 32" fill="none" xmlns="http://www.w3.org/2000/svg">
<g clip-path="url(#clip0_5666_16522)">
<mask id="mask0_5666_16522" style="mask-type:luminance" maskUnits="userSpaceOnUse" x="0" y="0" width="32" height="32">
<path d="M32 0H0V32H32V0Z" fill="white"/>
</mask>
<g mask="url(#mask0_5666_16522)">
<path d="M21.5867 2.66602H10.4133C5.56 2.66602 2.66666 5.55935 2.66666 10.4127V21.5727C2.66666 26.4393 5.56 29.3327 10.4133 29.3327H21.5733C26.4267 29.3327 29.32 26.4393 29.32 21.586V10.4127C29.3333 5.55935 26.44 2.66602 21.5867 2.66602ZM21.0133 21.0127C20.9333 22.146 20.84 23.5593 18.28 23.5593H13.72C11.1733 23.5593 11.0667 22.146 10.9867 21.0127L10.5733 15.7327C10.5467 15.386 10.6667 15.0527 10.8933 14.7993C11.12 14.546 11.4533 14.4127 11.7867 14.4127H20.2133C20.5467 14.4127 20.88 14.5593 21.1067 14.7993C21.3333 15.0527 21.4533 15.386 21.4267 15.7193L21.0133 21.0127ZM22.4 13.0927C22.3733 13.0927 22.3467 13.0927 22.32 13.0927C20.9333 12.9593 19.6667 12.866 18.4533 12.8127C16.8267 12.7327 15.2 12.706 13.56 12.7727C12.76 12.8127 11.9467 12.866 11.1467 12.946L9.69333 13.0927C9.66666 13.0927 9.62666 13.0927 9.6 13.0927C9.13333 13.0927 8.73333 12.746 8.69333 12.266C8.64 11.7727 9.01333 11.3193 9.50666 11.2793L10.96 11.1327C11.5333 11.0793 12.0933 11.0393 12.6667 11.0127L12.7733 10.386C12.88 9.71935 13.08 8.43935 15.08 8.43935H16.9333C18.9467 8.43935 19.1467 9.75935 19.24 10.3993L19.3467 11.0393C20.3467 11.0927 21.3733 11.1727 22.4933 11.2793C23 11.3327 23.36 11.7727 23.32 12.2793C23.2667 12.746 22.8667 13.0927 22.4 13.0927Z" fill="#EB3E3E"/>
</g>
</g>
<defs>
<clipPath id="clip0_5666_16522">
<rect width="32" height="32" fill="white"/>
</clipPath>
</defs>
</svg>
