<svg width="204" height="94" viewBox="0 0 204 94" fill="none" xmlns="http://www.w3.org/2000/svg">
<path d="M7.01367 19.7354C10.5254 15.0625 15.1841 11.0977 20.9897 7.84082C26.8237 4.55566 32.2754 2.55908 37.3447 1.85107C41.7061 1.19971 44.4956 1.96436 45.7134 4.14502C46.9312 6.29736 46.1665 10.6162 43.4194 17.1016C40.9839 22.8789 38.7607 29.2227 36.75 36.1328C39.4971 30.752 42.5132 25.5552 45.7983 20.5425C49.1118 15.5298 52.4819 11.7915 55.9087 9.32764C56.9849 8.70459 58.2876 8.81787 59.8169 9.66748C61.3462 10.5171 62.748 11.5933 64.0225 12.896C65.2969 14.1987 66.0757 15.2466 66.3589 16.0396C66.5005 16.7192 66.2173 18.3052 65.5093 20.7974C64.8013 23.2896 63.9092 26.1924 62.833 29.5059C62.748 29.7324 62.6772 29.9731 62.6206 30.228C64.9429 26.2065 67.3784 22.5815 69.9272 19.353C72.5044 16.1245 75.0674 13.7739 77.6162 12.3013C78.3242 11.9897 79.3438 12.0605 80.6748 12.5137C82.0059 12.9668 83.2661 13.604 84.4556 14.4253C85.645 15.2466 86.3813 16.0254 86.6646 16.7617C86.6646 16.79 86.6787 16.8325 86.707 16.8892C86.9336 17.2573 87.1035 18.3193 87.2168 20.0752C87.3584 21.8311 86.8345 24.2949 85.645 27.4668C83.7759 32.3379 82.3315 37.4214 81.312 42.7173C80.2925 47.9849 79.8252 52.856 79.9102 57.3306C80.0234 61.8052 80.8022 65.2886 82.2466 67.7808C82.4731 68.687 81.7793 69.5083 80.165 70.2446C78.5508 71.0093 76.7949 71.3916 74.8975 71.3916C72.5469 71.3916 70.6919 70.7686 69.3325 69.5225C68.0015 68.3047 67.0527 66.6621 66.4863 64.5947C65.9199 62.5557 65.6509 60.2476 65.6792 57.6704C65.7358 55.0649 65.9766 52.3745 66.4014 49.5991C66.8545 46.7954 67.4067 44.0625 68.0581 41.4004C68.7378 38.7383 69.4175 36.3027 70.0972 34.0938C70.8052 31.8848 71.4282 30.0723 71.9663 28.6562C71.3716 28.7129 70.1113 30.7095 68.1855 34.646C66.2598 38.5542 64.1499 42.9722 61.856 47.8999C59.4771 53.0542 57.4805 57.2173 55.8662 60.3892C55.7812 61.0405 55.3706 61.5078 54.6343 61.791C53.9263 62.0742 52.9067 62.0317 51.5757 61.6636C50.6128 61.437 49.4941 60.8706 48.2197 59.9644C46.9736 59.0581 45.9258 57.6846 45.0762 55.8438C44.2549 53.9746 44.0142 51.4966 44.354 48.4097C44.8071 45.3794 45.5151 42.2075 46.478 38.894C47.4409 35.5806 48.3188 32.7202 49.1118 30.313C49.6216 28.8403 49.9756 27.7217 50.1738 26.957C50.4004 26.1924 50.4146 25.9233 50.2163 26.1499C48.8003 27.9058 46.8179 31.5591 44.269 37.1099C41.7202 42.6323 39.2988 48.1689 37.0049 53.7197C34.7393 59.2422 33.2949 62.8672 32.6719 64.5947C32.8135 65.2744 32.1338 66.0391 30.6328 66.8887C29.1318 67.7666 27.3618 68.2056 25.3228 68.2056C24.2749 68.2056 23.1138 68.064 21.8394 67.7808C20.5649 67.4976 19.4888 66.9453 18.6108 66.124C17.7329 65.3311 17.3081 64.1699 17.3364 62.6406C17.7046 57.0615 19.1489 49.6699 21.6694 40.4658C24.2183 31.2334 27.291 23.0205 30.8877 15.8271C27.0361 18.7158 23.5811 22.3833 20.5225 26.8296C17.4922 31.2476 14.6885 36.2603 12.1113 41.8677C11.5166 43.1987 10.9219 43.8784 10.3271 43.9067C9.73242 43.9067 9.03857 43.4395 8.24561 42.5049C5.89502 39.7861 4.50732 36.9258 4.08252 33.9238C3.68604 30.8936 3.82764 28.104 4.50732 25.5552C5.18701 23.0063 6.02246 21.0664 7.01367 19.7354ZM116.316 54.5269C114.928 56.6792 113.314 58.605 111.473 60.3042C109.661 61.9751 107.664 63.3062 105.483 64.2974C103.331 65.3169 101.094 65.8267 98.7715 65.8267C95.9961 65.8267 93.7021 65.2886 91.8896 64.2124C90.1055 63.1362 88.7178 61.6919 87.7266 59.8794C86.7637 58.0669 86.1548 56.042 85.8999 53.8047C85.645 51.5391 85.6875 49.2026 86.0273 46.7954C86.3389 44.3882 86.8911 42.0376 87.6841 39.7437C88.6753 36.8833 89.978 34.292 91.5923 31.9697C93.2349 29.6475 95.1323 27.7925 97.2847 26.4048C99.4653 24.9888 101.873 24.2808 104.506 24.2808C107.055 24.2808 109.123 24.9888 110.708 26.4048C112.323 27.7925 113.456 29.5342 114.107 31.6299C114.758 33.6973 114.928 35.8071 114.617 37.9595C113.937 42.1792 112.139 45.252 109.222 47.1777C106.305 49.0752 102.835 50.2646 98.814 50.7461C99.437 53.8896 100.811 55.8721 102.935 56.6934C105.087 57.4863 107.636 56.6084 110.581 54.0596C113.555 51.4824 116.571 46.7104 119.629 39.7437C119.856 39.2905 120.097 39.1489 120.352 39.3188C120.635 39.4888 120.791 39.8569 120.819 40.4233C120.734 45.2661 119.233 49.9673 116.316 54.5269ZM98.644 45.8608C100.032 45.2378 101.377 44.2466 102.68 42.8872C104.011 41.5278 104.804 40.0835 105.059 38.5542C105.37 35.3823 105.285 33.5132 104.804 32.9468C104.351 32.3521 103.699 32.6777 102.85 33.9238C102 35.1416 101.15 36.855 100.301 39.064C99.3945 41.4712 98.8423 43.7368 98.644 45.8608ZM135.772 30.7803C134.554 32.5645 133.308 35.5522 132.034 39.7437C131.411 41.811 130.858 43.9351 130.377 46.1157C131.51 43.5386 132.77 40.9756 134.158 38.4268C135.545 35.8496 137.004 33.499 138.533 31.375C140.091 29.251 141.663 27.5376 143.249 26.2349C144.834 24.9321 146.364 24.2808 147.836 24.2808C149.394 24.2808 150.853 24.8472 152.212 25.98C153.571 27.1128 154.463 28.4014 154.888 29.8457C155.171 30.9785 155.171 32.2812 154.888 33.7539C154.633 35.1982 154.237 36.8691 153.699 38.7666C153.614 39.0781 153.529 39.4038 153.444 39.7437C152.651 42.6606 152.226 45.252 152.169 47.5176C152.141 49.7549 152.467 51.2275 153.146 51.9355C153.854 52.6152 154.917 52.063 156.333 50.2788C157.749 48.4663 159.547 44.9546 161.728 39.7437C161.954 39.2622 162.209 39.1206 162.492 39.3188C162.775 39.4888 162.917 39.8569 162.917 40.4233C162.804 44.6714 161.289 49.415 158.372 54.6543C157.324 56.4951 156.148 58.166 154.846 59.667C153.571 61.1396 152.198 62.3291 150.725 63.2354C149.252 64.1133 147.709 64.5522 146.095 64.5522C143.829 64.5522 142.13 63.8018 140.997 62.3008C139.864 60.7715 139.156 58.7891 138.873 56.3535C138.618 53.8896 138.689 51.2134 139.085 48.3247C139.482 45.436 140.105 42.5757 140.955 39.7437C141.889 36.7134 141.988 35.5947 141.252 36.3877C140.516 37.1807 139.383 39.064 137.854 42.0376C136.353 45.0112 134.894 48.2539 133.478 51.7656C132.062 55.249 131.127 58.1519 130.674 60.4741C130.759 60.8423 130.561 61.3521 130.08 62.0034C129.626 62.6265 128.904 63.207 127.913 63.7451C126.922 64.2832 125.69 64.5522 124.217 64.5522C122.235 64.5522 120.72 63.8018 119.672 62.3008C118.652 60.7715 118.001 58.7891 117.718 56.3535C117.435 53.8896 117.463 51.2134 117.803 48.3247C118.114 45.436 118.667 42.5757 119.459 39.7437C121.102 33.8813 123.184 29.6616 125.704 27.0845C127.12 25.8101 128.89 25.2012 131.014 25.2578C133.167 25.3145 135.149 26.2065 136.961 27.9341C137.245 28.2456 137.301 28.5713 137.131 28.9111C136.99 29.251 136.721 29.6475 136.324 30.1006C136.154 30.2988 135.97 30.5254 135.772 30.7803ZM168.057 64.5522C165.792 64.5522 164.021 63.8018 162.747 62.3008C161.473 60.7715 160.623 58.7891 160.198 56.3535C159.773 53.8896 159.703 51.2134 159.986 48.3247C160.241 45.436 160.793 42.5757 161.643 39.7437C163.483 33.8813 165.692 29.6616 168.27 27.0845C169.657 25.8101 171.314 25.2012 173.24 25.2578C175.194 25.3145 177.077 26.2065 178.89 27.9341C179.116 28.189 179.173 28.458 179.06 28.7412C178.946 28.9961 178.748 29.2935 178.465 29.6333C178.238 29.9448 177.983 30.3271 177.7 30.7803C176.114 33.6406 174.925 36.6284 174.132 39.7437C173.226 43.1421 172.843 45.9033 172.985 48.0273C173.126 50.123 173.679 50.9302 174.642 50.4487C175.633 49.939 176.936 47.5034 178.55 43.1421C178.833 42.0093 179.145 40.8765 179.484 39.7437C181.297 33.8813 183.492 29.6616 186.069 27.0845C187.513 25.8101 189.297 25.2012 191.421 25.2578C193.545 25.3145 195.514 26.2065 197.326 27.9341C197.609 28.2456 197.666 28.5713 197.496 28.9111C197.354 29.2227 197.085 29.605 196.689 30.0581C196.519 30.2847 196.349 30.5254 196.179 30.7803C194.197 33.5557 192.781 36.5435 191.931 39.7437C191.167 42.6606 190.784 45.252 190.784 47.5176C190.812 49.7549 191.209 51.2275 191.974 51.9355C192.738 52.6152 193.857 52.063 195.33 50.2788C196.831 48.4663 198.671 44.9546 200.852 39.7437C201.079 39.2622 201.333 39.1206 201.617 39.3188C201.9 39.4888 202.056 39.8569 202.084 40.4233C202.027 42.519 201.56 44.7705 200.682 47.1777C199.804 49.5566 198.841 51.6665 197.793 53.5073C196.689 55.5464 195.528 57.4014 194.31 59.0723C193.092 60.7148 191.705 62.0459 190.147 63.0654C188.589 64.0566 186.734 64.5522 184.582 64.5522C182.543 64.5522 180.957 63.915 179.824 62.6406C178.691 61.3662 177.941 59.6812 177.573 57.5854C176.355 59.6528 174.953 61.3379 173.367 62.6406C171.81 63.915 170.04 64.5522 168.057 64.5522Z" fill="white"/>
<path d="M40 91C92.3302 75.5816 129.156 71.1588 179.083 75.6854C180.319 75.7975 180.269 77.6256 179.03 77.6932C162.841 78.5765 147.622 80.2993 131.8 83.3542" stroke="white" stroke-width="6" stroke-linecap="round"/>
</svg>
