<svg width="20" height="19" viewBox="0 0 20 19" fill="none" xmlns="http://www.w3.org/2000/svg">
<mask id="mask0_5666_15674" style="mask-type:luminance" maskUnits="userSpaceOnUse" x="0" y="0" width="20" height="19">
<path d="M19.5002 0H0.499023V18.9983H19.5002V0Z" fill="white"/>
</mask>
<g mask="url(#mask0_5666_15674)">
<path d="M7.03768 16.82C7.54988 16.3078 7.84411 15.6539 7.92039 14.9782C8.02392 14.0792 7.72423 13.1474 7.03768 12.4609C6.62903 12.0522 6.12773 11.7798 5.5992 11.6545C4.59117 11.3984 3.47417 11.6654 2.67865 12.4609C2.12831 13.0113 1.82863 13.7141 1.79049 14.4388C1.76324 14.7494 1.79049 15.0709 1.87222 15.3814C1.99754 15.91 2.26998 16.4113 2.67865 16.82C3.88283 18.0241 5.8335 18.0241 7.03768 16.82ZM6.01331 14.0738C6.32934 14.0738 6.59088 14.3353 6.59088 14.6514C6.58544 14.9728 6.32934 15.2289 6.00786 15.2343L5.43574 15.2289L5.44118 15.7793C5.43574 16.1008 5.17964 16.3568 4.85816 16.3622C4.53668 16.3568 4.28059 16.1007 4.27515 15.7793L4.28059 15.2289L3.70847 15.2343C3.38699 15.2289 3.13089 14.9728 3.12545 14.6514C3.13089 14.4934 3.19628 14.3516 3.2998 14.2481C3.40333 14.1446 3.545 14.0792 3.70302 14.0738H4.28059V13.4744C4.28059 13.3109 4.34598 13.1693 4.4495 13.0657C4.55303 12.9622 4.6947 12.8968 4.85816 12.8968C5.17419 12.8968 5.43574 13.1584 5.43574 13.4744V14.0738H6.01331Z" fill="white"/>
<path d="M12.4496 3.04418V5.97237H11.2937V3.04418C11.2937 2.83612 11.1088 2.73594 10.9855 2.73594C10.947 2.73594 10.9084 2.74365 10.87 2.75906L4.75926 5.06309C4.35084 5.2172 4.08885 5.60249 4.08885 6.04172V6.55801C3.38762 7.082 2.93298 7.92189 2.93298 8.86975V6.04172C2.93298 5.12473 3.49551 4.30792 4.35084 3.98428L10.4692 1.67255C10.6387 1.61091 10.816 1.58008 10.9855 1.58008C11.7561 1.58008 12.4496 2.20425 12.4496 3.04418Z" fill="white"/>
<path d="M17.5751 11.1744V11.9449C17.5751 12.153 17.4133 12.3225 17.1975 12.3302H16.0724C15.664 12.3302 15.2941 12.0297 15.2634 11.629C15.2402 11.3901 15.3327 11.1667 15.4868 11.0126C15.6255 10.8661 15.8182 10.7891 16.0262 10.7891H17.1898C17.4133 10.7967 17.5751 10.9663 17.5751 11.1744Z" fill="white"/>
<path d="M16.0174 9.97964H16.8033C17.2272 9.97964 17.574 9.63289 17.574 9.20911V8.87004C17.574 7.27492 16.2717 5.97266 14.6766 5.97266H5.83036C5.17536 5.97266 4.57431 6.18842 4.08885 6.55829C3.38762 7.08228 2.93298 7.92218 2.93298 8.87004V10.2417C2.93298 10.5344 3.24122 10.7194 3.51863 10.6269C3.95015 10.4805 4.40479 10.4035 4.85942 10.4035C7.19427 10.4035 9.09758 12.3068 9.09758 14.6416C9.09758 15.1965 8.9512 15.8052 8.72003 16.3446C8.59669 16.622 8.78938 16.9534 9.0899 16.9534H14.6766C16.2717 16.9534 17.574 15.6511 17.574 14.056V13.9096C17.574 13.4858 17.2272 13.139 16.8033 13.139H16.133C15.3932 13.139 14.6843 12.6844 14.4916 11.9677C14.3375 11.3821 14.5225 10.8118 14.9078 10.442C15.1929 10.1492 15.5858 9.97964 16.0174 9.97964ZM11.7946 9.8255H7.94173C7.6258 9.8255 7.3638 9.56354 7.3638 9.24758C7.3638 8.93163 7.6258 8.66967 7.94173 8.66967H11.7946C12.1106 8.66967 12.3725 8.93163 12.3725 9.24758C12.3725 9.56354 12.1106 9.8255 11.7946 9.8255Z" fill="white"/>
</g>
</svg>
